<mxfile host="app.diagrams.net" modified="2023-11-02T00:22:30.980Z" agent="Mozilla/5.0 (Windows NT 10.0; Win64; x64) AppleWebKit/537.36 (KHTML, like Gecko) Chrome/116.0.5845.931 YaBrowser/23.9.3.931 Yowser/2.5 Safari/537.36" etag="UTFRzHDLZw1eUkds9p5_" version="22.0.8" type="device">
  <diagram name="Страница — 1" id="yOCdaiYyd8L4nn3iVnLO">
    <mxGraphModel dx="1136" dy="589" grid="1" gridSize="10" guides="1" tooltips="1" connect="1" arrows="1" fold="1" page="1" pageScale="1" pageWidth="827" pageHeight="1169" math="0" shadow="0">
      <root>
        <mxCell id="0" />
        <mxCell id="1" parent="0" />
        <mxCell id="GguY84p8eRWVxogA_h6Z-70" style="edgeStyle=orthogonalEdgeStyle;rounded=0;orthogonalLoop=1;jettySize=auto;html=1;exitX=0.5;exitY=1;exitDx=0;exitDy=0;entryX=0.5;entryY=0;entryDx=0;entryDy=0;" edge="1" parent="1" source="GguY84p8eRWVxogA_h6Z-3" target="GguY84p8eRWVxogA_h6Z-69">
          <mxGeometry relative="1" as="geometry" />
        </mxCell>
        <mxCell id="GguY84p8eRWVxogA_h6Z-3" value="начало" style="rounded=1;whiteSpace=wrap;html=1;" vertex="1" parent="1">
          <mxGeometry x="130" y="30" width="120" height="30" as="geometry" />
        </mxCell>
        <mxCell id="GguY84p8eRWVxogA_h6Z-11" style="edgeStyle=orthogonalEdgeStyle;rounded=0;orthogonalLoop=1;jettySize=auto;html=1;exitX=0.5;exitY=1;exitDx=0;exitDy=0;entryX=0.5;entryY=0;entryDx=0;entryDy=0;" edge="1" parent="1" source="GguY84p8eRWVxogA_h6Z-4">
          <mxGeometry relative="1" as="geometry">
            <mxPoint x="650" y="190" as="targetPoint" />
          </mxGeometry>
        </mxCell>
        <mxCell id="GguY84p8eRWVxogA_h6Z-18" style="edgeStyle=orthogonalEdgeStyle;rounded=0;orthogonalLoop=1;jettySize=auto;html=1;exitX=0.5;exitY=1;exitDx=0;exitDy=0;entryX=0.5;entryY=0;entryDx=0;entryDy=0;" edge="1" parent="1" source="GguY84p8eRWVxogA_h6Z-12" target="GguY84p8eRWVxogA_h6Z-17">
          <mxGeometry relative="1" as="geometry" />
        </mxCell>
        <mxCell id="GguY84p8eRWVxogA_h6Z-12" value="вывод всех мест" style="rounded=0;whiteSpace=wrap;html=1;" vertex="1" parent="1">
          <mxGeometry x="230" y="160" width="120" height="40" as="geometry" />
        </mxCell>
        <mxCell id="GguY84p8eRWVxogA_h6Z-19" style="edgeStyle=orthogonalEdgeStyle;rounded=0;orthogonalLoop=1;jettySize=auto;html=1;exitX=0;exitY=0.5;exitDx=0;exitDy=0;entryX=0.5;entryY=0;entryDx=0;entryDy=0;" edge="1" parent="1" source="GguY84p8eRWVxogA_h6Z-17" target="GguY84p8eRWVxogA_h6Z-20">
          <mxGeometry relative="1" as="geometry">
            <mxPoint x="80" y="290" as="targetPoint" />
          </mxGeometry>
        </mxCell>
        <mxCell id="GguY84p8eRWVxogA_h6Z-23" style="edgeStyle=orthogonalEdgeStyle;rounded=0;orthogonalLoop=1;jettySize=auto;html=1;exitX=1;exitY=0.5;exitDx=0;exitDy=0;entryX=0.5;entryY=0;entryDx=0;entryDy=0;" edge="1" parent="1" source="GguY84p8eRWVxogA_h6Z-17" target="GguY84p8eRWVxogA_h6Z-22">
          <mxGeometry relative="1" as="geometry" />
        </mxCell>
        <mxCell id="GguY84p8eRWVxogA_h6Z-17" value="ждём действий" style="rhombus;whiteSpace=wrap;html=1;" vertex="1" parent="1">
          <mxGeometry x="110" y="240" width="140" height="40" as="geometry" />
        </mxCell>
        <mxCell id="GguY84p8eRWVxogA_h6Z-27" style="edgeStyle=orthogonalEdgeStyle;rounded=0;orthogonalLoop=1;jettySize=auto;html=1;exitX=0.5;exitY=1;exitDx=0;exitDy=0;entryX=0.5;entryY=0;entryDx=0;entryDy=0;" edge="1" parent="1" target="GguY84p8eRWVxogA_h6Z-26">
          <mxGeometry relative="1" as="geometry">
            <mxPoint x="80" y="350" as="sourcePoint" />
            <mxPoint x="80" y="380" as="targetPoint" />
          </mxGeometry>
        </mxCell>
        <mxCell id="GguY84p8eRWVxogA_h6Z-20" value="пользователь выбрал фильтры" style="rounded=0;whiteSpace=wrap;html=1;" vertex="1" parent="1">
          <mxGeometry x="20" y="290" width="120" height="60" as="geometry" />
        </mxCell>
        <mxCell id="GguY84p8eRWVxogA_h6Z-25" style="edgeStyle=orthogonalEdgeStyle;rounded=0;orthogonalLoop=1;jettySize=auto;html=1;exitX=0.5;exitY=1;exitDx=0;exitDy=0;entryX=0.5;entryY=0;entryDx=0;entryDy=0;" edge="1" parent="1" source="GguY84p8eRWVxogA_h6Z-22" target="GguY84p8eRWVxogA_h6Z-24">
          <mxGeometry relative="1" as="geometry">
            <mxPoint x="270" y="380" as="targetPoint" />
          </mxGeometry>
        </mxCell>
        <mxCell id="GguY84p8eRWVxogA_h6Z-22" value="пользователь выбрал место" style="rounded=0;whiteSpace=wrap;html=1;" vertex="1" parent="1">
          <mxGeometry x="210" y="290" width="120" height="60" as="geometry" />
        </mxCell>
        <mxCell id="GguY84p8eRWVxogA_h6Z-24" value="U" style="ellipse;whiteSpace=wrap;html=1;" vertex="1" parent="1">
          <mxGeometry x="250" y="380" width="40" height="40" as="geometry" />
        </mxCell>
        <mxCell id="GguY84p8eRWVxogA_h6Z-26" value="T" style="ellipse;whiteSpace=wrap;html=1;" vertex="1" parent="1">
          <mxGeometry x="60" y="380" width="40" height="40" as="geometry" />
        </mxCell>
        <mxCell id="GguY84p8eRWVxogA_h6Z-47" style="edgeStyle=orthogonalEdgeStyle;rounded=0;orthogonalLoop=1;jettySize=auto;html=1;exitX=0.5;exitY=1;exitDx=0;exitDy=0;" edge="1" parent="1" source="GguY84p8eRWVxogA_h6Z-28" target="GguY84p8eRWVxogA_h6Z-46">
          <mxGeometry relative="1" as="geometry" />
        </mxCell>
        <mxCell id="GguY84p8eRWVxogA_h6Z-28" value="U" style="ellipse;whiteSpace=wrap;html=1;" vertex="1" parent="1">
          <mxGeometry x="670" y="10" width="40" height="40" as="geometry" />
        </mxCell>
        <mxCell id="GguY84p8eRWVxogA_h6Z-30" style="edgeStyle=orthogonalEdgeStyle;rounded=0;orthogonalLoop=1;jettySize=auto;html=1;exitX=0.5;exitY=1;exitDx=0;exitDy=0;entryX=0.5;entryY=0;entryDx=0;entryDy=0;" edge="1" parent="1" source="GguY84p8eRWVxogA_h6Z-29" target="GguY84p8eRWVxogA_h6Z-32">
          <mxGeometry relative="1" as="geometry">
            <mxPoint x="440" y="100" as="targetPoint" />
          </mxGeometry>
        </mxCell>
        <mxCell id="GguY84p8eRWVxogA_h6Z-29" value="T" style="ellipse;whiteSpace=wrap;html=1;" vertex="1" parent="1">
          <mxGeometry x="480" y="10" width="40" height="40" as="geometry" />
        </mxCell>
        <mxCell id="GguY84p8eRWVxogA_h6Z-34" style="edgeStyle=orthogonalEdgeStyle;rounded=0;orthogonalLoop=1;jettySize=auto;html=1;exitX=0.5;exitY=1;exitDx=0;exitDy=0;entryX=0.5;entryY=0;entryDx=0;entryDy=0;" edge="1" parent="1" source="GguY84p8eRWVxogA_h6Z-32">
          <mxGeometry relative="1" as="geometry">
            <mxPoint x="440" y="170" as="targetPoint" />
          </mxGeometry>
        </mxCell>
        <mxCell id="GguY84p8eRWVxogA_h6Z-32" value="предлагаем фильтры" style="rounded=0;whiteSpace=wrap;html=1;" vertex="1" parent="1">
          <mxGeometry x="380" y="90" width="120" height="60" as="geometry" />
        </mxCell>
        <mxCell id="GguY84p8eRWVxogA_h6Z-45" style="edgeStyle=orthogonalEdgeStyle;rounded=0;orthogonalLoop=1;jettySize=auto;html=1;exitX=0.5;exitY=1;exitDx=0;exitDy=0;entryX=0.5;entryY=0;entryDx=0;entryDy=0;" edge="1" parent="1" target="GguY84p8eRWVxogA_h6Z-44">
          <mxGeometry relative="1" as="geometry">
            <mxPoint x="440" y="460" as="sourcePoint" />
          </mxGeometry>
        </mxCell>
        <mxCell id="GguY84p8eRWVxogA_h6Z-72" style="edgeStyle=orthogonalEdgeStyle;rounded=0;orthogonalLoop=1;jettySize=auto;html=1;exitX=0;exitY=0.5;exitDx=0;exitDy=0;entryX=1;entryY=0.5;entryDx=0;entryDy=0;" edge="1" parent="1" source="GguY84p8eRWVxogA_h6Z-42" target="GguY84p8eRWVxogA_h6Z-3">
          <mxGeometry relative="1" as="geometry" />
        </mxCell>
        <mxCell id="GguY84p8eRWVxogA_h6Z-42" value="A" style="ellipse;whiteSpace=wrap;html=1;" vertex="1" parent="1">
          <mxGeometry x="310" y="25" width="40" height="40" as="geometry" />
        </mxCell>
        <mxCell id="GguY84p8eRWVxogA_h6Z-44" value="A" style="ellipse;whiteSpace=wrap;html=1;" vertex="1" parent="1">
          <mxGeometry x="420" y="490" width="40" height="40" as="geometry" />
        </mxCell>
        <mxCell id="GguY84p8eRWVxogA_h6Z-55" style="edgeStyle=orthogonalEdgeStyle;rounded=0;orthogonalLoop=1;jettySize=auto;html=1;exitX=0.5;exitY=1;exitDx=0;exitDy=0;entryX=0.5;entryY=0;entryDx=0;entryDy=0;" edge="1" parent="1" source="GguY84p8eRWVxogA_h6Z-46" target="GguY84p8eRWVxogA_h6Z-53">
          <mxGeometry relative="1" as="geometry" />
        </mxCell>
        <mxCell id="GguY84p8eRWVxogA_h6Z-46" value="вывод информации" style="rounded=0;whiteSpace=wrap;html=1;" vertex="1" parent="1">
          <mxGeometry x="630" y="90" width="120" height="60" as="geometry" />
        </mxCell>
        <mxCell id="GguY84p8eRWVxogA_h6Z-66" style="edgeStyle=orthogonalEdgeStyle;rounded=0;orthogonalLoop=1;jettySize=auto;html=1;exitX=0.5;exitY=1;exitDx=0;exitDy=0;entryX=0.5;entryY=0;entryDx=0;entryDy=0;" edge="1" parent="1" source="GguY84p8eRWVxogA_h6Z-53" target="GguY84p8eRWVxogA_h6Z-65">
          <mxGeometry relative="1" as="geometry" />
        </mxCell>
        <mxCell id="GguY84p8eRWVxogA_h6Z-65" value="A" style="ellipse;whiteSpace=wrap;html=1;" vertex="1" parent="1">
          <mxGeometry x="670" y="590" width="40" height="40" as="geometry" />
        </mxCell>
        <mxCell id="GguY84p8eRWVxogA_h6Z-67" value="" style="group" vertex="1" connectable="0" parent="1">
          <mxGeometry x="377" y="170" width="200" height="290" as="geometry" />
        </mxCell>
        <mxCell id="GguY84p8eRWVxogA_h6Z-33" value="" style="rounded=0;whiteSpace=wrap;html=1;movable=1;resizable=1;rotatable=1;deletable=1;editable=1;locked=0;connectable=1;" vertex="1" parent="GguY84p8eRWVxogA_h6Z-67">
          <mxGeometry width="200" height="290" as="geometry" />
        </mxCell>
        <mxCell id="GguY84p8eRWVxogA_h6Z-35" value="дата и время&amp;nbsp;" style="shape=parallelogram;perimeter=parallelogramPerimeter;whiteSpace=wrap;html=1;fixedSize=1;movable=1;resizable=1;rotatable=1;deletable=1;editable=1;locked=0;connectable=1;" vertex="1" parent="GguY84p8eRWVxogA_h6Z-67">
          <mxGeometry x="10" y="10" width="180" height="30" as="geometry" />
        </mxCell>
        <mxCell id="GguY84p8eRWVxogA_h6Z-36" value="продолжительность" style="shape=parallelogram;perimeter=parallelogramPerimeter;whiteSpace=wrap;html=1;fixedSize=1;movable=1;resizable=1;rotatable=1;deletable=1;editable=1;locked=0;connectable=1;" vertex="1" parent="GguY84p8eRWVxogA_h6Z-67">
          <mxGeometry x="10" y="50" width="180" height="30" as="geometry" />
        </mxCell>
        <mxCell id="GguY84p8eRWVxogA_h6Z-37" value="- место проведения" style="shape=parallelogram;perimeter=parallelogramPerimeter;whiteSpace=wrap;html=1;fixedSize=1;movable=1;resizable=1;rotatable=1;deletable=1;editable=1;locked=0;connectable=1;" vertex="1" parent="GguY84p8eRWVxogA_h6Z-67">
          <mxGeometry x="10" y="90" width="180" height="30" as="geometry" />
        </mxCell>
        <mxCell id="GguY84p8eRWVxogA_h6Z-38" value="стоимость билета&lt;br/&gt;" style="shape=parallelogram;perimeter=parallelogramPerimeter;whiteSpace=wrap;html=1;fixedSize=1;movable=1;resizable=1;rotatable=1;deletable=1;editable=1;locked=0;connectable=1;" vertex="1" parent="GguY84p8eRWVxogA_h6Z-67">
          <mxGeometry x="10" y="130" width="180" height="30" as="geometry" />
        </mxCell>
        <mxCell id="GguY84p8eRWVxogA_h6Z-39" value="наличие мест&lt;br/&gt;" style="shape=parallelogram;perimeter=parallelogramPerimeter;whiteSpace=wrap;html=1;fixedSize=1;movable=1;resizable=1;rotatable=1;deletable=1;editable=1;locked=0;connectable=1;" vertex="1" parent="GguY84p8eRWVxogA_h6Z-67">
          <mxGeometry x="10" y="170" width="180" height="30" as="geometry" />
        </mxCell>
        <mxCell id="GguY84p8eRWVxogA_h6Z-40" value="тип (для детей, для семьи, для взрослых)&lt;br/&gt;" style="shape=parallelogram;perimeter=parallelogramPerimeter;whiteSpace=wrap;html=1;fixedSize=1;movable=1;resizable=1;rotatable=1;deletable=1;editable=1;locked=0;connectable=1;" vertex="1" parent="GguY84p8eRWVxogA_h6Z-67">
          <mxGeometry x="10" y="210" width="180" height="60" as="geometry" />
        </mxCell>
        <mxCell id="GguY84p8eRWVxogA_h6Z-68" value="" style="group" vertex="1" connectable="0" parent="1">
          <mxGeometry x="590" y="170" width="200" height="390" as="geometry" />
        </mxCell>
        <mxCell id="GguY84p8eRWVxogA_h6Z-53" value="" style="rounded=0;whiteSpace=wrap;html=1;" vertex="1" parent="GguY84p8eRWVxogA_h6Z-68">
          <mxGeometry width="200" height="390" as="geometry" />
        </mxCell>
        <mxCell id="GguY84p8eRWVxogA_h6Z-57" value="дата и время&amp;nbsp;" style="shape=parallelogram;perimeter=parallelogramPerimeter;whiteSpace=wrap;html=1;fixedSize=1;" vertex="1" parent="GguY84p8eRWVxogA_h6Z-68">
          <mxGeometry x="10" y="10" width="180" height="30" as="geometry" />
        </mxCell>
        <mxCell id="GguY84p8eRWVxogA_h6Z-58" value="продолжительность" style="shape=parallelogram;perimeter=parallelogramPerimeter;whiteSpace=wrap;html=1;fixedSize=1;" vertex="1" parent="GguY84p8eRWVxogA_h6Z-68">
          <mxGeometry x="10" y="50" width="180" height="30" as="geometry" />
        </mxCell>
        <mxCell id="GguY84p8eRWVxogA_h6Z-59" value="- место проведения" style="shape=parallelogram;perimeter=parallelogramPerimeter;whiteSpace=wrap;html=1;fixedSize=1;" vertex="1" parent="GguY84p8eRWVxogA_h6Z-68">
          <mxGeometry x="10" y="90" width="180" height="30" as="geometry" />
        </mxCell>
        <mxCell id="GguY84p8eRWVxogA_h6Z-60" value="стоимость билета&lt;br/&gt;" style="shape=parallelogram;perimeter=parallelogramPerimeter;whiteSpace=wrap;html=1;fixedSize=1;" vertex="1" parent="GguY84p8eRWVxogA_h6Z-68">
          <mxGeometry x="10" y="130" width="180" height="30" as="geometry" />
        </mxCell>
        <mxCell id="GguY84p8eRWVxogA_h6Z-61" value="тип (для детей, для семьи, &lt;br&gt;для взрослых)" style="shape=parallelogram;perimeter=parallelogramPerimeter;whiteSpace=wrap;html=1;fixedSize=1;" vertex="1" parent="GguY84p8eRWVxogA_h6Z-68">
          <mxGeometry x="10" y="250" width="180" height="60" as="geometry" />
        </mxCell>
        <mxCell id="GguY84p8eRWVxogA_h6Z-62" value="покупал ли пользователь раннее билеты в это место&lt;br/&gt;" style="shape=parallelogram;perimeter=parallelogramPerimeter;whiteSpace=wrap;html=1;fixedSize=1;" vertex="1" parent="GguY84p8eRWVxogA_h6Z-68">
          <mxGeometry x="10" y="320" width="180" height="60" as="geometry" />
        </mxCell>
        <mxCell id="GguY84p8eRWVxogA_h6Z-63" value="текстовое описание" style="shape=parallelogram;perimeter=parallelogramPerimeter;whiteSpace=wrap;html=1;fixedSize=1;" vertex="1" parent="GguY84p8eRWVxogA_h6Z-68">
          <mxGeometry x="10" y="170" width="180" height="30" as="geometry" />
        </mxCell>
        <mxCell id="GguY84p8eRWVxogA_h6Z-64" value="наличие мест" style="shape=parallelogram;perimeter=parallelogramPerimeter;whiteSpace=wrap;html=1;fixedSize=1;" vertex="1" parent="GguY84p8eRWVxogA_h6Z-68">
          <mxGeometry x="10" y="210" width="180" height="30" as="geometry" />
        </mxCell>
        <mxCell id="GguY84p8eRWVxogA_h6Z-73" style="edgeStyle=orthogonalEdgeStyle;rounded=0;orthogonalLoop=1;jettySize=auto;html=1;exitX=0;exitY=0.5;exitDx=0;exitDy=0;entryX=0.5;entryY=0;entryDx=0;entryDy=0;" edge="1" parent="1" source="GguY84p8eRWVxogA_h6Z-69" target="GguY84p8eRWVxogA_h6Z-75">
          <mxGeometry relative="1" as="geometry">
            <mxPoint x="90" y="140" as="targetPoint" />
          </mxGeometry>
        </mxCell>
        <mxCell id="GguY84p8eRWVxogA_h6Z-74" style="edgeStyle=orthogonalEdgeStyle;rounded=0;orthogonalLoop=1;jettySize=auto;html=1;exitX=1;exitY=0.5;exitDx=0;exitDy=0;entryX=0.5;entryY=0;entryDx=0;entryDy=0;" edge="1" parent="1" source="GguY84p8eRWVxogA_h6Z-69" target="GguY84p8eRWVxogA_h6Z-12">
          <mxGeometry relative="1" as="geometry" />
        </mxCell>
        <mxCell id="GguY84p8eRWVxogA_h6Z-69" value="вывод с фильтром" style="rhombus;whiteSpace=wrap;html=1;" vertex="1" parent="1">
          <mxGeometry x="110" y="90" width="160" height="40" as="geometry" />
        </mxCell>
        <mxCell id="GguY84p8eRWVxogA_h6Z-76" style="edgeStyle=orthogonalEdgeStyle;rounded=0;orthogonalLoop=1;jettySize=auto;html=1;exitX=0.5;exitY=1;exitDx=0;exitDy=0;entryX=0.5;entryY=0;entryDx=0;entryDy=0;" edge="1" parent="1" source="GguY84p8eRWVxogA_h6Z-75" target="GguY84p8eRWVxogA_h6Z-17">
          <mxGeometry relative="1" as="geometry" />
        </mxCell>
        <mxCell id="GguY84p8eRWVxogA_h6Z-75" value="вывод доступных мест" style="rounded=0;whiteSpace=wrap;html=1;" vertex="1" parent="1">
          <mxGeometry x="30" y="160" width="120" height="40" as="geometry" />
        </mxCell>
      </root>
    </mxGraphModel>
  </diagram>
</mxfile>
